<mxfile host="app.diagrams.net" modified="2023-10-20T08:46:45.629Z" agent="Mozilla/5.0 (Windows NT 10.0; Win64; x64) AppleWebKit/537.36 (KHTML, like Gecko) Chrome/117.0.0.0 Safari/537.36 OPR/103.0.0.0" etag="7U4dydK8e4874R3_nrK5" version="22.0.0" type="github">
  <diagram name="第 1 页" id="fWb6vU2rxMPIU9BcL1lz">
    <mxGraphModel dx="986" dy="529" grid="1" gridSize="10" guides="1" tooltips="1" connect="1" arrows="1" fold="1" page="1" pageScale="1" pageWidth="827" pageHeight="1169" math="0" shadow="0">
      <root>
        <mxCell id="0" />
        <mxCell id="1" parent="0" />
        <mxCell id="W1xaSY6SLCHzcKL2KYa3-3" style="edgeStyle=orthogonalEdgeStyle;rounded=0;orthogonalLoop=1;jettySize=auto;html=1;entryX=0.5;entryY=0;entryDx=0;entryDy=0;" edge="1" parent="1" source="W1xaSY6SLCHzcKL2KYa3-1" target="W1xaSY6SLCHzcKL2KYa3-2">
          <mxGeometry relative="1" as="geometry" />
        </mxCell>
        <mxCell id="W1xaSY6SLCHzcKL2KYa3-1" value="Start isLegalExpression" style="rounded=1;whiteSpace=wrap;html=1;arcSize=50;" vertex="1" parent="1">
          <mxGeometry x="354" y="20" width="120" height="60" as="geometry" />
        </mxCell>
        <mxCell id="W1xaSY6SLCHzcKL2KYa3-11" style="edgeStyle=orthogonalEdgeStyle;rounded=0;orthogonalLoop=1;jettySize=auto;html=1;entryX=0.5;entryY=0;entryDx=0;entryDy=0;" edge="1" parent="1" source="W1xaSY6SLCHzcKL2KYa3-2" target="W1xaSY6SLCHzcKL2KYa3-4">
          <mxGeometry relative="1" as="geometry" />
        </mxCell>
        <mxCell id="W1xaSY6SLCHzcKL2KYa3-2" value="Input a string" style="shape=parallelogram;perimeter=parallelogramPerimeter;whiteSpace=wrap;html=1;fixedSize=1;" vertex="1" parent="1">
          <mxGeometry x="350" y="100" width="130" height="40" as="geometry" />
        </mxCell>
        <mxCell id="W1xaSY6SLCHzcKL2KYa3-19" style="edgeStyle=orthogonalEdgeStyle;rounded=0;orthogonalLoop=1;jettySize=auto;html=1;entryX=0.5;entryY=0;entryDx=0;entryDy=0;" edge="1" parent="1" source="W1xaSY6SLCHzcKL2KYa3-4" target="W1xaSY6SLCHzcKL2KYa3-17">
          <mxGeometry relative="1" as="geometry" />
        </mxCell>
        <mxCell id="W1xaSY6SLCHzcKL2KYa3-22" value="No" style="edgeLabel;html=1;align=center;verticalAlign=middle;resizable=0;points=[];" vertex="1" connectable="0" parent="W1xaSY6SLCHzcKL2KYa3-19">
          <mxGeometry x="-0.8746" y="-3" relative="1" as="geometry">
            <mxPoint as="offset" />
          </mxGeometry>
        </mxCell>
        <mxCell id="W1xaSY6SLCHzcKL2KYa3-4" value="Are all characters in string&lt;br&gt;legal symbols?" style="rhombus;whiteSpace=wrap;html=1;" vertex="1" parent="1">
          <mxGeometry x="320" y="170" width="190" height="80" as="geometry" />
        </mxCell>
        <mxCell id="W1xaSY6SLCHzcKL2KYa3-14" style="edgeStyle=orthogonalEdgeStyle;rounded=0;orthogonalLoop=1;jettySize=auto;html=1;entryX=0.5;entryY=0;entryDx=0;entryDy=0;exitX=1;exitY=0.5;exitDx=0;exitDy=0;" edge="1" parent="1" source="W1xaSY6SLCHzcKL2KYa3-6" target="W1xaSY6SLCHzcKL2KYa3-8">
          <mxGeometry relative="1" as="geometry">
            <Array as="points">
              <mxPoint x="635" y="360" />
              <mxPoint x="635" y="360" />
            </Array>
          </mxGeometry>
        </mxCell>
        <mxCell id="W1xaSY6SLCHzcKL2KYa3-15" value="Yes" style="edgeLabel;html=1;align=center;verticalAlign=middle;resizable=0;points=[];" vertex="1" connectable="0" parent="W1xaSY6SLCHzcKL2KYa3-14">
          <mxGeometry x="0.0307" relative="1" as="geometry">
            <mxPoint as="offset" />
          </mxGeometry>
        </mxCell>
        <mxCell id="W1xaSY6SLCHzcKL2KYa3-20" style="edgeStyle=orthogonalEdgeStyle;rounded=0;orthogonalLoop=1;jettySize=auto;html=1;entryX=0.5;entryY=0;entryDx=0;entryDy=0;" edge="1" parent="1" source="W1xaSY6SLCHzcKL2KYa3-6" target="W1xaSY6SLCHzcKL2KYa3-17">
          <mxGeometry relative="1" as="geometry" />
        </mxCell>
        <mxCell id="W1xaSY6SLCHzcKL2KYa3-23" value="No" style="edgeLabel;html=1;align=center;verticalAlign=middle;resizable=0;points=[];" vertex="1" connectable="0" parent="W1xaSY6SLCHzcKL2KYa3-20">
          <mxGeometry x="-0.7812" y="3" relative="1" as="geometry">
            <mxPoint as="offset" />
          </mxGeometry>
        </mxCell>
        <mxCell id="W1xaSY6SLCHzcKL2KYa3-6" value="Are the brackets matching correctly?" style="rhombus;whiteSpace=wrap;html=1;" vertex="1" parent="1">
          <mxGeometry x="385" y="260" width="250" height="80" as="geometry" />
        </mxCell>
        <mxCell id="W1xaSY6SLCHzcKL2KYa3-21" style="edgeStyle=orthogonalEdgeStyle;rounded=0;orthogonalLoop=1;jettySize=auto;html=1;entryX=0.5;entryY=0;entryDx=0;entryDy=0;" edge="1" parent="1" source="W1xaSY6SLCHzcKL2KYa3-8" target="W1xaSY6SLCHzcKL2KYa3-17">
          <mxGeometry relative="1" as="geometry" />
        </mxCell>
        <mxCell id="W1xaSY6SLCHzcKL2KYa3-24" value="No" style="edgeLabel;html=1;align=center;verticalAlign=middle;resizable=0;points=[];" vertex="1" connectable="0" parent="W1xaSY6SLCHzcKL2KYa3-21">
          <mxGeometry x="-0.8561" y="-1" relative="1" as="geometry">
            <mxPoint y="1" as="offset" />
          </mxGeometry>
        </mxCell>
        <mxCell id="W1xaSY6SLCHzcKL2KYa3-25" style="edgeStyle=orthogonalEdgeStyle;rounded=0;orthogonalLoop=1;jettySize=auto;html=1;entryX=1;entryY=0.5;entryDx=0;entryDy=0;" edge="1" parent="1" source="W1xaSY6SLCHzcKL2KYa3-8" target="W1xaSY6SLCHzcKL2KYa3-16">
          <mxGeometry relative="1" as="geometry">
            <Array as="points">
              <mxPoint x="770" y="420" />
              <mxPoint x="770" y="590" />
            </Array>
          </mxGeometry>
        </mxCell>
        <mxCell id="W1xaSY6SLCHzcKL2KYa3-26" value="Yes" style="edgeLabel;html=1;align=center;verticalAlign=middle;resizable=0;points=[];" vertex="1" connectable="0" parent="W1xaSY6SLCHzcKL2KYa3-25">
          <mxGeometry x="-0.8469" y="-1" relative="1" as="geometry">
            <mxPoint as="offset" />
          </mxGeometry>
        </mxCell>
        <mxCell id="W1xaSY6SLCHzcKL2KYa3-8" value="Are there any illegal situations&lt;br&gt;between two adjacent characters?" style="rhombus;whiteSpace=wrap;html=1;" vertex="1" parent="1">
          <mxGeometry x="500" y="370" width="269" height="100" as="geometry" />
        </mxCell>
        <mxCell id="W1xaSY6SLCHzcKL2KYa3-12" style="edgeStyle=orthogonalEdgeStyle;rounded=0;orthogonalLoop=1;jettySize=auto;html=1;entryX=0.5;entryY=0;entryDx=0;entryDy=0;exitX=1;exitY=0.5;exitDx=0;exitDy=0;" edge="1" parent="1" source="W1xaSY6SLCHzcKL2KYa3-4" target="W1xaSY6SLCHzcKL2KYa3-6">
          <mxGeometry relative="1" as="geometry">
            <Array as="points">
              <mxPoint x="510" y="240" />
              <mxPoint x="510" y="240" />
            </Array>
          </mxGeometry>
        </mxCell>
        <mxCell id="W1xaSY6SLCHzcKL2KYa3-13" value="Yes" style="edgeLabel;html=1;align=center;verticalAlign=middle;resizable=0;points=[];" vertex="1" connectable="0" parent="W1xaSY6SLCHzcKL2KYa3-12">
          <mxGeometry x="0.0933" relative="1" as="geometry">
            <mxPoint as="offset" />
          </mxGeometry>
        </mxCell>
        <mxCell id="W1xaSY6SLCHzcKL2KYa3-16" value="End" style="rounded=1;whiteSpace=wrap;html=1;" vertex="1" parent="1">
          <mxGeometry x="354" y="560" width="120" height="60" as="geometry" />
        </mxCell>
        <mxCell id="W1xaSY6SLCHzcKL2KYa3-18" style="edgeStyle=orthogonalEdgeStyle;rounded=0;orthogonalLoop=1;jettySize=auto;html=1;entryX=0;entryY=0.5;entryDx=0;entryDy=0;" edge="1" parent="1" source="W1xaSY6SLCHzcKL2KYa3-17" target="W1xaSY6SLCHzcKL2KYa3-16">
          <mxGeometry relative="1" as="geometry" />
        </mxCell>
        <mxCell id="W1xaSY6SLCHzcKL2KYa3-17" value="Output Error types" style="shape=parallelogram;perimeter=parallelogramPerimeter;whiteSpace=wrap;html=1;fixedSize=1;" vertex="1" parent="1">
          <mxGeometry x="100" y="560" width="130" height="60" as="geometry" />
        </mxCell>
      </root>
    </mxGraphModel>
  </diagram>
</mxfile>
